# xmcd
#
# Track frame offsets:
#	150
#	12278
#	20018
#	28823
#	41761
#	53964
#	62117
#	73285
#	86148
#	96791
#	109301
#
# Disc length: 1627 seconds
#
# Revision: 1
# Processed by: cddbd v1.5.2PL0 Copyright (c) Steve Scherf et al.
# Submitted via: audiograbber 1.83.01
#
DISCID=9e06590b
DTITLE=The Kingston Trio - Sunny Side!
DYEAR=1963
DGENRE=Country
TTITLE0=Desert Pete
TTITLE1=Marcelle Vahine
TTITLE2=Sing Out
TTITLE3=Ballad Of The Thresher
TTITLE4=Blowin' In The Wind
TTITLE5=Goo Ga Gee
TTITLE6=Jackson
TTITLE7=Two-Ten, Six Eighteen
TTITLE8=Those Brown Eyes
TTITLE9=Those Who Are Wise
TTITLE10=Rider
EXTD=This is was originaly a LP that I have made into a CD
EXTT0=
EXTT1=
EXTT2=
EXTT3=
EXTT4=
EXTT5=
EXTT6=
EXTT7=
EXTT8=
EXTT9=
EXTT10=
PLAYORDER=
